<svg width="500" height="281" viewBox="0 0 500 281" fill="none" xmlns="http://www.w3.org/2000/svg">
<rect width="500" height="281" fill="#4A4A4A"/>
<path d="M341.058 53H157.942C154.775 53 151.737 54.2571 149.498 56.4947C147.258 58.7324 146 61.7673 146 64.9318V216.068C146 219.233 147.258 222.268 149.498 224.505C151.737 226.743 154.775 228 157.942 228H341.058C344.225 228 347.263 226.743 349.502 224.505C351.742 222.268 353 219.233 353 216.068V64.9318C353 61.7673 351.742 58.7324 349.502 56.4947C347.263 54.2571 344.225 53 341.058 53ZM329.115 160.386L290.948 118.784C290.225 117.986 289.347 117.343 288.367 116.896C287.387 116.449 286.326 116.207 285.249 116.183C284.172 116.16 283.101 116.357 282.103 116.762C281.105 117.167 280.2 117.771 279.443 118.538L236.873 161.07L279.977 204.136H257.462L219.302 166.01C217.809 164.519 215.784 163.681 213.673 163.681C211.562 163.681 209.537 164.519 208.044 166.01L169.885 204.136V76.8636H329.115V160.386ZM186.604 112.659C186.604 108.883 187.724 105.192 189.824 102.053C191.924 98.9133 194.908 96.4663 198.399 95.0214C201.891 93.5764 205.733 93.1984 209.439 93.935C213.146 94.6716 216.55 96.4899 219.223 99.1598C221.895 101.83 223.715 105.231 224.452 108.935C225.189 112.638 224.811 116.476 223.365 119.965C221.919 123.453 219.469 126.435 216.327 128.533C213.185 130.63 209.491 131.75 205.712 131.75C200.644 131.75 195.784 129.739 192.2 126.158C188.617 122.578 186.604 117.722 186.604 112.659V112.659Z" fill="#F0F0F0"/>
</svg>
