<svg viewBox="0 0 421 632" fill="none" xmlns="http://www.w3.org/2000/svg">
    <path fill="#4A4A4A" d="M0 0h421v632H0z"/>
    <path d="M300 380.523v21.644a7.84 7.84 0 01-2.292 5.539 7.822 7.822 0 01-5.534 2.294H127.826a7.822 7.822 0 01-5.534-2.294 7.84 7.84 0 01-2.292-5.539v-21.644a12.353 12.353 0 017.286-10.692l40.195-21.189a39.34 39.34 0 0014.388 16.112 39.29 39.29 0 0020.72 6.079h14.822a39.277 39.277 0 0020.72-6.077 39.332 39.332 0 0014.388-16.114l40.195 21.189A12.353 12.353 0 01300 380.523zM164.178 301.32a23.425 23.425 0 0010.252 11.453l5.213 23.899a23.502 23.502 0 008.211 13.296 23.469 23.469 0 0014.727 5.199h14.838a23.461 23.461 0 0014.72-5.199 23.504 23.504 0 008.211-13.288l5.212-23.907a23.423 23.423 0 0010.26-11.453l2.191-5.89a9.998 9.998 0 00-1.66-11.345 9.985 9.985 0 00-3.31-2.317v-20.601c0-23.5-15.652-39.167-43.043-39.167s-43.043 15.667-43.043 39.167v20.601a9.985 9.985 0 00-6.017 9.757 9.998 9.998 0 001.047 3.905l2.191 5.89z" fill="#F0F0F0"/>
</svg>
